<svg width="100" height="79" viewBox="0 0 100 79" fill="none" xmlns="http://www.w3.org/2000/svg">
<path d="M0 41.2527L37.2335 1.02319L45.0908 8.29534L7.85732 48.5248L0 41.2527Z" fill="white"/>
<path d="M32.3722 71.214L69.6056 30.9845L77.4629 38.2566L40.2295 78.4861L32.3722 71.214Z" fill="white"/>
<path d="M0 41.2527L7.27216 33.3953L47.5016 70.6288L40.2295 78.4861L0 41.2527Z" fill="white"/>
<path d="M29.9613 8.88051L37.2335 1.02319L77.4629 38.2566L70.1908 46.114L29.9613 8.88051Z" fill="white"/>
<path d="M22.5371 40.2295L59.7705 0L67.6278 7.27216L30.3944 47.5016L22.5371 40.2295Z" fill="#EAB308"/>
<path d="M54.9092 70.1908L92.1427 29.9613L100 37.2335L62.7666 77.4629L54.9092 70.1908Z" fill="#EAB308"/>
<path d="M22.5371 40.2295L29.8092 32.3722L70.0387 69.6056L62.7666 77.4629L22.5371 40.2295Z" fill="#EAB308"/>
<path d="M52.4984 7.85732L59.7705 0L100 37.2335L92.7278 45.0908L52.4984 7.85732Z" fill="#EAB308"/>
</svg>
